<?xml version="1.0" standalone="no"?><!DOCTYPE svg PUBLIC "-//W3C//DTD SVG 1.1//EN" "http://www.w3.org/Graphics/SVG/1.1/DTD/svg11.dtd"><svg t="1630813585993" class="icon" viewBox="0 0 1024 1024" version="1.1" xmlns="http://www.w3.org/2000/svg" p-id="11871" xmlns:xlink="http://www.w3.org/1999/xlink" width="200" height="200"><defs><style type="text/css"></style></defs><path d="M512.029898 0C229.316204 0 0.059796 229.136818 0.059796 511.910307c0 282.773489 229.196613 512.029898 511.970102 512.029898s511.910307-229.256409 511.910307-512.029898C1023.940204 229.136818 794.803387 0 512.029898 0zM512.029898 925.935182c-228.718248 0-414.144467-185.246832-414.144467-414.024876 0-228.658453 185.426219-414.144467 414.144467-414.144467 228.598657 0 413.96508 185.486015 413.96508 414.144467C925.994978 740.68835 740.68835 925.935182 512.029898 925.935182zM842.580088 443.384526 842.580088 580.615474c0 26.369869-21.646015 48.135474-48.075679 48.135474L545.45565 628.750949c-26.549255 0-48.19527 21.466628-48.19527 48.015883l0 122.999591c0 26.369869-15.188088 32.708204-33.844321 13.992175L195.531679 545.934015c-18.656234-18.716029-18.656234-49.271591 0-67.98762l267.88438-267.824584c18.536642-18.83562 33.844321-12.377693 33.844321 13.992175l0 122.999591c0 26.549255 21.765606 48.135474 48.19527 48.135474l249.048759 0C820.934073 395.249051 842.520292 416.715679 842.580088 443.384526z" p-id="11872" fill="#000000"></path></svg>