<?xml version="1.0" standalone="no"?><!DOCTYPE svg PUBLIC "-//W3C//DTD SVG 1.1//EN" "http://www.w3.org/Graphics/SVG/1.1/DTD/svg11.dtd"><svg t="1630813593778" class="icon" viewBox="0 0 1024 1024" version="1.1" xmlns="http://www.w3.org/2000/svg" p-id="12066" xmlns:xlink="http://www.w3.org/1999/xlink" width="200" height="200"><defs><style type="text/css"></style></defs><path d="M511.9701 0C229.299696 0 0.0299 229.269797 0.0299 511.940201c0 282.790002 229.269797 512.059799 511.940201 512.059799 282.790002 0 512-229.269797 512-512.059799C1023.910301 229.269797 794.760103 0 511.9701 0zM511.9701 925.989255c-228.671806 0-414.049054-185.25765-414.049054-414.049054 0-228.671806 185.377248-414.168652 414.049054-414.168652 228.731605 0 414.108853 185.496847 414.108853 414.168652C926.019154 740.731605 740.701705 925.989255 511.9701 925.989255zM828.486802 477.974305 560.706377 210.134081C541.929456 191.416959 526.740481 197.755665 526.740481 224.246671l0 123.006774c0 26.371409-21.707078 48.018687-48.078486 48.018687L229.538893 395.272133c-26.431208 0-48.198085 21.467881-48.198085 48.138285L181.340808 580.649381c0 26.371409 21.647279 48.138285 48.198085 48.138285l249.123102 0c26.311609 0 48.078486 21.58748 48.078486 48.018687l0 123.006774c0 26.371409 15.248774 32.710114 33.906097 14.112591l267.840224-267.840224C847.203924 527.248774 847.203924 496.631628 828.486802 477.974305z" p-id="12067" fill="#ffffff"></path></svg>