<?xml version="1.0" standalone="no"?><!DOCTYPE svg PUBLIC "-//W3C//DTD SVG 1.1//EN" "http://www.w3.org/Graphics/SVG/1.1/DTD/svg11.dtd"><svg t="1630814947076" class="icon" viewBox="0 0 1024 1024" version="1.1" xmlns="http://www.w3.org/2000/svg" p-id="1512" xmlns:xlink="http://www.w3.org/1999/xlink" width="200" height="200"><defs><style type="text/css"></style></defs><path d="M894 477c20.987 0 38 17.013 38 38 0 1.157-0.052 2.302-0.153 3.433 0.114 0.57 0.168 1.16 0.155 1.767C927.7 748.3 741.4 932 512.2 932c-134.4 0-254-63.1-330.9-161.4l-56.4 44.1c-5.2 4.2-12.9 0.4-12.9-6.3l0.7-181c0-5.1 4.9-8.9 9.9-7.7l175.7 43c6.5 1.6 8.3 10 3 14.1l-60.2 47c8.6 11 17.9 21.5 27.8 31.4 31.6 31.7 68.4 56.5 109.3 73.8 42.4 17.9 87.4 27 133.9 27s91.5-9.1 133.9-27c41-17.3 77.8-42.2 109.4-73.8 31.6-31.6 56.4-68.4 73.7-109.4 16.9-39.9 25.9-82.3 26.9-126 0.011-0.471 0.063-0.932 0.152-1.38A38.397 38.397 0 0 1 856 515c0-20.987 17.013-38 38-38zM511.8 92c134.4 0 254 63.1 330.9 161.5l56.4-44.1c5.2-4.2 12.9-0.4 12.9 6.3l-0.8 180.9c0 5.1-4.9 8.9-9.9 7.7l-175.7-43c-6.5-1.6-8.3-10-3-14.1l60.2-47c-8.6-11-17.9-21.5-27.8-31.4-31.6-31.7-68.4-56.5-109.3-73.8-42.3-17.9-87.3-27-133.8-27-46.5 0-91.5 9.1-133.9 27-41 17.3-77.8 42.1-109.4 73.8-31.6 31.7-56.4 68.4-73.7 109.4-16.9 39.9-25.9 82.3-26.9 126a8.08 8.08 0 0 1-0.024 0.458c0.016 0.445 0.024 0.893 0.024 1.342 0 20.987-17.013 38-38 38s-38-17.013-38-38c0-0.452 0.008-0.902 0.024-1.35a8.163 8.163 0 0 1-0.026-0.85C96.3 275.6 282.7 92 511.8 92z" p-id="1513" fill="#ffffff"></path></svg>